<mxfile host="Electron" modified="2023-09-25T07:35:36.128Z" agent="Mozilla/5.0 (Windows NT 10.0; Win64; x64) AppleWebKit/537.36 (KHTML, like Gecko) draw.io/21.6.8 Chrome/114.0.5735.289 Electron/25.5.0 Safari/537.36" version="21.6.8" etag="B0RweAW2VSv_qkqMiWZw" type="device" pages="3">
  <diagram id="ZpcuexRNUEiEJdDurFAH" name="Page-1">
    <mxGraphModel dx="2039" dy="1170" grid="1" gridSize="10" guides="1" tooltips="1" connect="1" arrows="1" fold="1" page="1" pageScale="1" pageWidth="827" pageHeight="1169" math="0" shadow="0">
      <root>
        <mxCell id="0" />
        <mxCell id="1" parent="0" />
        <mxCell id="ZvBJnnXzMz99AhH-LRqk-36" value="" style="rounded=0;whiteSpace=wrap;html=1;" parent="1" vertex="1">
          <mxGeometry x="10" y="70" width="520" height="320" as="geometry" />
        </mxCell>
        <mxCell id="36" value="" style="group" parent="1" vertex="1" connectable="0">
          <mxGeometry x="80" y="120" width="400" height="260" as="geometry" />
        </mxCell>
        <mxCell id="8" style="edgeStyle=none;html=1;exitX=0.5;exitY=1;exitDx=0;exitDy=0;endArrow=none;endFill=0;dashed=1;startArrow=none;" parent="36" source="11" edge="1">
          <mxGeometry relative="1" as="geometry">
            <mxPoint y="260" as="targetPoint" />
            <mxPoint as="sourcePoint" />
          </mxGeometry>
        </mxCell>
        <mxCell id="9" style="edgeStyle=none;html=1;exitX=0.5;exitY=1;exitDx=0;exitDy=0;endArrow=none;endFill=0;dashed=1;" parent="36" edge="1">
          <mxGeometry relative="1" as="geometry">
            <mxPoint x="200" y="260" as="targetPoint" />
            <mxPoint x="200" as="sourcePoint" />
          </mxGeometry>
        </mxCell>
        <mxCell id="10" style="edgeStyle=none;html=1;exitX=0.5;exitY=1;exitDx=0;exitDy=0;endArrow=none;endFill=0;dashed=1;startArrow=none;" parent="36" source="21" edge="1">
          <mxGeometry relative="1" as="geometry">
            <mxPoint x="400" y="260" as="targetPoint" />
            <mxPoint x="400" as="sourcePoint" />
          </mxGeometry>
        </mxCell>
        <mxCell id="2" value="Zebra" style="rounded=0;whiteSpace=wrap;html=1;" parent="1" vertex="1">
          <mxGeometry x="40" y="80" width="80" height="40" as="geometry" />
        </mxCell>
        <mxCell id="5" value="fpmsyncd" style="rounded=0;whiteSpace=wrap;html=1;" parent="1" vertex="1">
          <mxGeometry x="240" y="80" width="80" height="40" as="geometry" />
        </mxCell>
        <mxCell id="6" value="redis-server" style="rounded=0;whiteSpace=wrap;html=1;" parent="1" vertex="1">
          <mxGeometry x="440" y="80" width="80" height="40" as="geometry" />
        </mxCell>
        <mxCell id="12" value="" style="edgeStyle=none;html=1;exitX=0.5;exitY=1;exitDx=0;exitDy=0;endArrow=none;endFill=0;dashed=1;" parent="1" target="11" edge="1">
          <mxGeometry relative="1" as="geometry">
            <mxPoint x="80" y="480" as="targetPoint" />
            <mxPoint x="80" y="120" as="sourcePoint" />
          </mxGeometry>
        </mxCell>
        <mxCell id="13" style="edgeStyle=none;html=1;exitX=0;exitY=0;exitDx=0;exitDy=0;endArrow=oval;endFill=1;startArrow=classic;startFill=1;" parent="1" source="11" edge="1">
          <mxGeometry relative="1" as="geometry">
            <mxPoint x="20" y="160" as="targetPoint" />
            <Array as="points">
              <mxPoint x="50" y="160" />
            </Array>
          </mxGeometry>
        </mxCell>
        <mxCell id="14" value="add route" style="edgeLabel;html=1;align=center;verticalAlign=middle;resizable=0;points=[];" parent="13" vertex="1" connectable="0">
          <mxGeometry x="-0.1656" y="-1" relative="1" as="geometry">
            <mxPoint x="-8" y="-9" as="offset" />
          </mxGeometry>
        </mxCell>
        <mxCell id="18" style="edgeStyle=none;html=1;exitX=1;exitY=0.5;exitDx=0;exitDy=0;entryX=0;entryY=0;entryDx=0;entryDy=0;startArrow=none;startFill=0;endArrow=classic;endFill=1;" parent="1" source="11" target="17" edge="1">
          <mxGeometry relative="1" as="geometry" />
        </mxCell>
        <mxCell id="24" value="RTM_NEWROUTE" style="edgeLabel;html=1;align=center;verticalAlign=middle;resizable=0;points=[];" parent="18" vertex="1" connectable="0">
          <mxGeometry x="-0.1317" y="1" relative="1" as="geometry">
            <mxPoint x="3" y="-9" as="offset" />
          </mxGeometry>
        </mxCell>
        <mxCell id="11" value="" style="rounded=0;whiteSpace=wrap;html=1;" parent="1" vertex="1">
          <mxGeometry x="75" y="160" width="10" height="40" as="geometry" />
        </mxCell>
        <mxCell id="23" style="edgeStyle=none;html=1;exitX=1;exitY=0.5;exitDx=0;exitDy=0;entryX=0;entryY=0;entryDx=0;entryDy=0;startArrow=none;startFill=0;endArrow=classic;endFill=1;" parent="1" source="17" target="21" edge="1">
          <mxGeometry relative="1" as="geometry" />
        </mxCell>
        <mxCell id="25" value="HSET ROUTE_TABLE:PREFIX" style="edgeLabel;html=1;align=center;verticalAlign=middle;resizable=0;points=[];" parent="23" vertex="1" connectable="0">
          <mxGeometry x="-0.3198" y="3" relative="1" as="geometry">
            <mxPoint x="24" y="-7" as="offset" />
          </mxGeometry>
        </mxCell>
        <mxCell id="17" value="" style="rounded=0;whiteSpace=wrap;html=1;" parent="1" vertex="1">
          <mxGeometry x="275" y="180" width="10" height="40" as="geometry" />
        </mxCell>
        <mxCell id="22" value="" style="edgeStyle=none;html=1;exitX=0.5;exitY=1;exitDx=0;exitDy=0;endArrow=none;endFill=0;dashed=1;" parent="1" target="21" edge="1">
          <mxGeometry relative="1" as="geometry">
            <mxPoint x="479.9999999999999" y="480" as="targetPoint" />
            <mxPoint x="479.9999999999999" y="120" as="sourcePoint" />
          </mxGeometry>
        </mxCell>
        <mxCell id="21" value="" style="rounded=0;whiteSpace=wrap;html=1;" parent="1" vertex="1">
          <mxGeometry x="475" y="200" width="10" height="40" as="geometry" />
        </mxCell>
        <mxCell id="26" style="edgeStyle=none;html=1;exitX=0;exitY=0;exitDx=0;exitDy=0;endArrow=oval;endFill=1;startArrow=classic;startFill=1;" parent="1" source="30" edge="1">
          <mxGeometry relative="1" as="geometry">
            <mxPoint x="20" y="280" as="targetPoint" />
          </mxGeometry>
        </mxCell>
        <mxCell id="27" value="del route" style="edgeLabel;html=1;align=center;verticalAlign=middle;resizable=0;points=[];" parent="26" vertex="1" connectable="0">
          <mxGeometry x="-0.1656" y="-1" relative="1" as="geometry">
            <mxPoint x="-8" y="-9" as="offset" />
          </mxGeometry>
        </mxCell>
        <mxCell id="28" style="edgeStyle=none;html=1;exitX=1;exitY=0.5;exitDx=0;exitDy=0;entryX=0;entryY=0;entryDx=0;entryDy=0;startArrow=none;startFill=0;endArrow=classic;endFill=1;" parent="1" source="30" target="33" edge="1">
          <mxGeometry relative="1" as="geometry" />
        </mxCell>
        <mxCell id="29" value="RTM_DELROUTE" style="edgeLabel;html=1;align=center;verticalAlign=middle;resizable=0;points=[];" parent="28" vertex="1" connectable="0">
          <mxGeometry x="-0.1317" y="1" relative="1" as="geometry">
            <mxPoint x="3" y="-9" as="offset" />
          </mxGeometry>
        </mxCell>
        <mxCell id="30" value="" style="rounded=0;whiteSpace=wrap;html=1;" parent="1" vertex="1">
          <mxGeometry x="75" y="280" width="10" height="40" as="geometry" />
        </mxCell>
        <mxCell id="31" style="edgeStyle=none;html=1;exitX=1;exitY=0.5;exitDx=0;exitDy=0;entryX=0;entryY=0;entryDx=0;entryDy=0;startArrow=none;startFill=0;endArrow=classic;endFill=1;" parent="1" source="33" target="34" edge="1">
          <mxGeometry relative="1" as="geometry" />
        </mxCell>
        <mxCell id="32" value="HDEL ROUTE_TABLE:PREFIX" style="edgeLabel;html=1;align=center;verticalAlign=middle;resizable=0;points=[];" parent="31" vertex="1" connectable="0">
          <mxGeometry x="-0.3198" y="3" relative="1" as="geometry">
            <mxPoint x="24" y="-7" as="offset" />
          </mxGeometry>
        </mxCell>
        <mxCell id="33" value="" style="rounded=0;whiteSpace=wrap;html=1;" parent="1" vertex="1">
          <mxGeometry x="275" y="300" width="10" height="40" as="geometry" />
        </mxCell>
        <mxCell id="34" value="" style="rounded=0;whiteSpace=wrap;html=1;" parent="1" vertex="1">
          <mxGeometry x="475" y="320" width="10" height="40" as="geometry" />
        </mxCell>
      </root>
    </mxGraphModel>
  </diagram>
  <diagram id="t2x5_iKklu-KmWJWGByA" name="Page-2">
    <mxGraphModel dx="2039" dy="1170" grid="1" gridSize="10" guides="1" tooltips="1" connect="1" arrows="1" fold="1" page="1" pageScale="1" pageWidth="827" pageHeight="1169" math="0" shadow="0">
      <root>
        <mxCell id="0" />
        <mxCell id="1" parent="0" />
        <mxCell id="VdZWt2KJ80F0qBQY-MRz-1" value="" style="rounded=0;whiteSpace=wrap;html=1;" parent="1" vertex="1">
          <mxGeometry x="10" y="70" width="560" height="340" as="geometry" />
        </mxCell>
        <mxCell id="DLDrxVjT8JXxF0v51l7V-3" style="edgeStyle=none;html=1;exitX=0.5;exitY=1;exitDx=0;exitDy=0;endArrow=none;endFill=0;dashed=1;" parent="1" edge="1">
          <mxGeometry relative="1" as="geometry">
            <mxPoint x="280" y="400" as="targetPoint" />
            <mxPoint x="280" y="120" as="sourcePoint" />
          </mxGeometry>
        </mxCell>
        <mxCell id="DLDrxVjT8JXxF0v51l7V-5" value="Zebra" style="rounded=0;whiteSpace=wrap;html=1;" parent="1" vertex="1">
          <mxGeometry x="40" y="80" width="80" height="40" as="geometry" />
        </mxCell>
        <mxCell id="DLDrxVjT8JXxF0v51l7V-6" value="fpmsyncd" style="rounded=0;whiteSpace=wrap;html=1;" parent="1" vertex="1">
          <mxGeometry x="240" y="80" width="80" height="40" as="geometry" />
        </mxCell>
        <mxCell id="DLDrxVjT8JXxF0v51l7V-7" value="redis-server" style="rounded=0;whiteSpace=wrap;html=1;" parent="1" vertex="1">
          <mxGeometry x="480" y="80" width="80" height="40" as="geometry" />
        </mxCell>
        <mxCell id="DLDrxVjT8JXxF0v51l7V-8" value="" style="edgeStyle=none;html=1;exitX=0.5;exitY=1;exitDx=0;exitDy=0;endArrow=none;endFill=0;dashed=1;" parent="1" target="DLDrxVjT8JXxF0v51l7V-13" edge="1">
          <mxGeometry relative="1" as="geometry">
            <mxPoint x="80" y="480" as="targetPoint" />
            <mxPoint x="79.99999999999989" y="120" as="sourcePoint" />
          </mxGeometry>
        </mxCell>
        <mxCell id="DLDrxVjT8JXxF0v51l7V-9" style="edgeStyle=none;html=1;exitX=0;exitY=0;exitDx=0;exitDy=0;endArrow=oval;endFill=1;startArrow=classic;startFill=1;" parent="1" source="DLDrxVjT8JXxF0v51l7V-13" edge="1">
          <mxGeometry relative="1" as="geometry">
            <mxPoint x="19.999999999999886" y="150" as="targetPoint" />
          </mxGeometry>
        </mxCell>
        <mxCell id="DLDrxVjT8JXxF0v51l7V-10" value="add route" style="edgeLabel;html=1;align=center;verticalAlign=middle;resizable=0;points=[];" parent="DLDrxVjT8JXxF0v51l7V-9" vertex="1" connectable="0">
          <mxGeometry x="-0.1656" y="-1" relative="1" as="geometry">
            <mxPoint x="-8" y="-9" as="offset" />
          </mxGeometry>
        </mxCell>
        <mxCell id="DLDrxVjT8JXxF0v51l7V-11" style="edgeStyle=none;html=1;entryX=0;entryY=0;entryDx=0;entryDy=0;startArrow=none;startFill=0;endArrow=classic;endFill=1;exitX=1.057;exitY=0.113;exitDx=0;exitDy=0;exitPerimeter=0;" parent="1" source="DLDrxVjT8JXxF0v51l7V-13" target="DLDrxVjT8JXxF0v51l7V-16" edge="1">
          <mxGeometry relative="1" as="geometry">
            <mxPoint x="90" y="170" as="sourcePoint" />
          </mxGeometry>
        </mxCell>
        <mxCell id="DLDrxVjT8JXxF0v51l7V-12" value="RTM_NEWNEXTHOP" style="edgeLabel;html=1;align=center;verticalAlign=middle;resizable=0;points=[];" parent="DLDrxVjT8JXxF0v51l7V-11" vertex="1" connectable="0">
          <mxGeometry x="-0.1317" y="1" relative="1" as="geometry">
            <mxPoint y="-9" as="offset" />
          </mxGeometry>
        </mxCell>
        <mxCell id="DLDrxVjT8JXxF0v51l7V-13" value="" style="rounded=0;whiteSpace=wrap;html=1;" parent="1" vertex="1">
          <mxGeometry x="75" y="150" width="10" height="180" as="geometry" />
        </mxCell>
        <mxCell id="DLDrxVjT8JXxF0v51l7V-14" style="edgeStyle=none;html=1;startArrow=none;startFill=0;endArrow=classic;endFill=1;exitX=0.985;exitY=0.896;exitDx=0;exitDy=0;exitPerimeter=0;" parent="1" edge="1">
          <mxGeometry relative="1" as="geometry">
            <mxPoint x="286" y="326.28" as="sourcePoint" />
            <mxPoint x="514" y="326" as="targetPoint" />
          </mxGeometry>
        </mxCell>
        <mxCell id="DLDrxVjT8JXxF0v51l7V-15" value="HSET NEXT_HOP_GROUP_TABLE:PREFIX" style="edgeLabel;html=1;align=center;verticalAlign=middle;resizable=0;points=[];" parent="DLDrxVjT8JXxF0v51l7V-14" vertex="1" connectable="0">
          <mxGeometry x="-0.3198" y="3" relative="1" as="geometry">
            <mxPoint x="38" y="-9" as="offset" />
          </mxGeometry>
        </mxCell>
        <mxCell id="DLDrxVjT8JXxF0v51l7V-32" value="" style="edgeStyle=none;html=1;endArrow=none;endFill=0;dashed=1;startArrow=none;exitX=0.5;exitY=1;exitDx=0;exitDy=0;" parent="1" source="DLDrxVjT8JXxF0v51l7V-7" target="DLDrxVjT8JXxF0v51l7V-30" edge="1">
          <mxGeometry relative="1" as="geometry">
            <mxPoint x="519.9999999999999" y="380" as="targetPoint" />
            <mxPoint x="519.9999999999999" y="120" as="sourcePoint" />
          </mxGeometry>
        </mxCell>
        <mxCell id="DLDrxVjT8JXxF0v51l7V-30" value="" style="rounded=0;whiteSpace=wrap;html=1;" parent="1" vertex="1">
          <mxGeometry x="515" y="320" width="10" height="60" as="geometry" />
        </mxCell>
        <mxCell id="DLDrxVjT8JXxF0v51l7V-16" value="" style="rounded=0;whiteSpace=wrap;html=1;" parent="1" vertex="1">
          <mxGeometry x="275" y="170" width="10" height="210" as="geometry" />
        </mxCell>
        <mxCell id="DLDrxVjT8JXxF0v51l7V-37" style="edgeStyle=none;html=1;entryX=0;entryY=0;entryDx=0;entryDy=0;startArrow=none;startFill=0;endArrow=classic;endFill=1;exitX=1.126;exitY=0.389;exitDx=0;exitDy=0;exitPerimeter=0;" parent="1" source="DLDrxVjT8JXxF0v51l7V-13" edge="1">
          <mxGeometry relative="1" as="geometry">
            <mxPoint x="90" y="220" as="sourcePoint" />
            <mxPoint x="275" y="220.00000000000023" as="targetPoint" />
          </mxGeometry>
        </mxCell>
        <mxCell id="DLDrxVjT8JXxF0v51l7V-38" value="RTM_NEWNEXTHOP" style="edgeLabel;html=1;align=center;verticalAlign=middle;resizable=0;points=[];" parent="DLDrxVjT8JXxF0v51l7V-37" vertex="1" connectable="0">
          <mxGeometry x="-0.1317" y="1" relative="1" as="geometry">
            <mxPoint y="-9" as="offset" />
          </mxGeometry>
        </mxCell>
        <mxCell id="_rOIyLTrsBwDc-lcygb--1" value="" style="group" parent="1" vertex="1" connectable="0">
          <mxGeometry x="279" y="177" width="31" height="33" as="geometry" />
        </mxCell>
        <mxCell id="DLDrxVjT8JXxF0v51l7V-39" value="" style="rounded=0;whiteSpace=wrap;html=1;" parent="_rOIyLTrsBwDc-lcygb--1" vertex="1">
          <mxGeometry width="10" height="33" as="geometry" />
        </mxCell>
        <mxCell id="DLDrxVjT8JXxF0v51l7V-43" style="edgeStyle=orthogonalEdgeStyle;rounded=0;html=1;exitX=1;exitY=0.25;exitDx=0;exitDy=0;entryX=1;entryY=0.75;entryDx=0;entryDy=0;startArrow=none;startFill=0;endArrow=classic;endFill=1;" parent="_rOIyLTrsBwDc-lcygb--1" source="DLDrxVjT8JXxF0v51l7V-39" target="DLDrxVjT8JXxF0v51l7V-39" edge="1">
          <mxGeometry relative="1" as="geometry">
            <mxPoint x="10" y="8.25" as="sourcePoint" />
            <mxPoint x="10" y="24.75" as="targetPoint" />
            <Array as="points">
              <mxPoint x="31" y="8" />
              <mxPoint x="31" y="25" />
              <mxPoint x="21" y="25" />
            </Array>
          </mxGeometry>
        </mxCell>
        <mxCell id="_rOIyLTrsBwDc-lcygb--12" value="" style="group" parent="1" vertex="1" connectable="0">
          <mxGeometry x="279" y="220" width="31" height="33" as="geometry" />
        </mxCell>
        <mxCell id="_rOIyLTrsBwDc-lcygb--13" value="" style="rounded=0;whiteSpace=wrap;html=1;" parent="_rOIyLTrsBwDc-lcygb--12" vertex="1">
          <mxGeometry width="10" height="33" as="geometry" />
        </mxCell>
        <mxCell id="_rOIyLTrsBwDc-lcygb--14" style="edgeStyle=orthogonalEdgeStyle;rounded=0;html=1;exitX=1;exitY=0.25;exitDx=0;exitDy=0;entryX=1;entryY=0.75;entryDx=0;entryDy=0;startArrow=none;startFill=0;endArrow=classic;endFill=1;" parent="_rOIyLTrsBwDc-lcygb--12" source="_rOIyLTrsBwDc-lcygb--13" target="_rOIyLTrsBwDc-lcygb--13" edge="1">
          <mxGeometry relative="1" as="geometry">
            <mxPoint x="10" y="8.25" as="sourcePoint" />
            <mxPoint x="10" y="24.75" as="targetPoint" />
            <Array as="points">
              <mxPoint x="31" y="8" />
              <mxPoint x="31" y="25" />
              <mxPoint x="21" y="25" />
            </Array>
          </mxGeometry>
        </mxCell>
        <mxCell id="_rOIyLTrsBwDc-lcygb--15" value="" style="group" parent="1" vertex="1" connectable="0">
          <mxGeometry x="279" y="260" width="31" height="33" as="geometry" />
        </mxCell>
        <mxCell id="_rOIyLTrsBwDc-lcygb--16" value="" style="rounded=0;whiteSpace=wrap;html=1;" parent="_rOIyLTrsBwDc-lcygb--15" vertex="1">
          <mxGeometry width="10" height="33" as="geometry" />
        </mxCell>
        <mxCell id="_rOIyLTrsBwDc-lcygb--17" style="edgeStyle=orthogonalEdgeStyle;rounded=0;html=1;exitX=1;exitY=0.25;exitDx=0;exitDy=0;entryX=1;entryY=0.75;entryDx=0;entryDy=0;startArrow=none;startFill=0;endArrow=classic;endFill=1;" parent="_rOIyLTrsBwDc-lcygb--15" source="_rOIyLTrsBwDc-lcygb--16" target="_rOIyLTrsBwDc-lcygb--16" edge="1">
          <mxGeometry relative="1" as="geometry">
            <mxPoint x="10" y="8.25" as="sourcePoint" />
            <mxPoint x="10" y="24.75" as="targetPoint" />
            <Array as="points">
              <mxPoint x="31" y="8" />
              <mxPoint x="31" y="25" />
              <mxPoint x="21" y="25" />
            </Array>
          </mxGeometry>
        </mxCell>
        <mxCell id="_rOIyLTrsBwDc-lcygb--18" style="edgeStyle=none;html=1;entryX=0;entryY=0;entryDx=0;entryDy=0;startArrow=none;startFill=0;endArrow=classic;endFill=1;exitX=1.126;exitY=0.389;exitDx=0;exitDy=0;exitPerimeter=0;" parent="1" edge="1">
          <mxGeometry relative="1" as="geometry">
            <mxPoint x="84.99999999999999" y="259.33" as="sourcePoint" />
            <mxPoint x="273.74" y="259.31000000000023" as="targetPoint" />
          </mxGeometry>
        </mxCell>
        <mxCell id="_rOIyLTrsBwDc-lcygb--19" value="RTM_NEWNEXTHOP" style="edgeLabel;html=1;align=center;verticalAlign=middle;resizable=0;points=[];" parent="_rOIyLTrsBwDc-lcygb--18" vertex="1" connectable="0">
          <mxGeometry x="-0.1317" y="1" relative="1" as="geometry">
            <mxPoint y="-9" as="offset" />
          </mxGeometry>
        </mxCell>
        <mxCell id="_rOIyLTrsBwDc-lcygb--20" style="edgeStyle=none;html=1;startArrow=none;startFill=0;endArrow=classic;endFill=1;" parent="1" edge="1">
          <mxGeometry relative="1" as="geometry">
            <mxPoint x="286" y="361" as="sourcePoint" />
            <mxPoint x="517" y="360" as="targetPoint" />
          </mxGeometry>
        </mxCell>
        <mxCell id="_rOIyLTrsBwDc-lcygb--21" value="HSET ROUTE_TABLE:PREFIX" style="edgeLabel;html=1;align=center;verticalAlign=middle;resizable=0;points=[];" parent="_rOIyLTrsBwDc-lcygb--20" vertex="1" connectable="0">
          <mxGeometry x="-0.3198" y="3" relative="1" as="geometry">
            <mxPoint x="24" y="-7" as="offset" />
          </mxGeometry>
        </mxCell>
        <mxCell id="_rOIyLTrsBwDc-lcygb--23" style="edgeStyle=none;html=1;entryX=0;entryY=0;entryDx=0;entryDy=0;startArrow=none;startFill=0;endArrow=classic;endFill=1;exitX=1.126;exitY=0.389;exitDx=0;exitDy=0;exitPerimeter=0;" parent="1" edge="1">
          <mxGeometry relative="1" as="geometry">
            <mxPoint x="86.25999999999989" y="310.0199999999999" as="sourcePoint" />
            <mxPoint x="275" y="310.00000000000017" as="targetPoint" />
          </mxGeometry>
        </mxCell>
        <mxCell id="_rOIyLTrsBwDc-lcygb--24" value="RTM_NEWNEXTHOP" style="edgeLabel;html=1;align=center;verticalAlign=middle;resizable=0;points=[];" parent="_rOIyLTrsBwDc-lcygb--23" vertex="1" connectable="0">
          <mxGeometry x="-0.1317" y="1" relative="1" as="geometry">
            <mxPoint y="-9" as="offset" />
          </mxGeometry>
        </mxCell>
        <mxCell id="DLDrxVjT8JXxF0v51l7V-2" style="edgeStyle=none;html=1;exitX=0.5;exitY=1;exitDx=0;exitDy=0;endArrow=none;endFill=0;dashed=1;startArrow=none;" parent="1" source="DLDrxVjT8JXxF0v51l7V-13" edge="1">
          <mxGeometry relative="1" as="geometry">
            <mxPoint x="80" y="389.2307692307692" as="targetPoint" />
            <mxPoint x="80" y="109.23076923076923" as="sourcePoint" />
          </mxGeometry>
        </mxCell>
        <mxCell id="DLDrxVjT8JXxF0v51l7V-4" style="edgeStyle=none;html=1;endArrow=none;endFill=0;dashed=1;startArrow=none;exitX=0.5;exitY=1;exitDx=0;exitDy=0;" parent="1" source="DLDrxVjT8JXxF0v51l7V-30" edge="1">
          <mxGeometry relative="1" as="geometry">
            <mxPoint x="520" y="389.2307692307692" as="targetPoint" />
            <mxPoint x="520" y="249.23076923076923" as="sourcePoint" />
          </mxGeometry>
        </mxCell>
      </root>
    </mxGraphModel>
  </diagram>
  <diagram id="fKGR6N7-rILU6uvzphsw" name="ページ3">
    <mxGraphModel dx="2039" dy="1170" grid="1" gridSize="10" guides="1" tooltips="1" connect="1" arrows="1" fold="1" page="1" pageScale="1" pageWidth="4681" pageHeight="3300" math="0" shadow="0">
      <root>
        <mxCell id="0" />
        <mxCell id="1" parent="0" />
        <mxCell id="nvpcLpLh85yd8eupczsD-13" value="BGP Container" style="rounded=0;whiteSpace=wrap;html=1;fontStyle=1;verticalAlign=bottom;spacingBottom=12;fontSize=14;" vertex="1" parent="1">
          <mxGeometry x="670" y="190" width="200" height="260" as="geometry" />
        </mxCell>
        <mxCell id="nvpcLpLh85yd8eupczsD-4" style="edgeStyle=orthogonalEdgeStyle;rounded=0;orthogonalLoop=1;jettySize=auto;html=1;entryX=0.5;entryY=0;entryDx=0;entryDy=0;entryPerimeter=0;fontSize=14;" edge="1" parent="1" source="nvpcLpLh85yd8eupczsD-1" target="nvpcLpLh85yd8eupczsD-3">
          <mxGeometry relative="1" as="geometry" />
        </mxCell>
        <mxCell id="nvpcLpLh85yd8eupczsD-1" value="Management&lt;br style=&quot;font-size: 14px;&quot;&gt;Framework&lt;br style=&quot;font-size: 14px;&quot;&gt;(Klish CLI)" style="rounded=0;whiteSpace=wrap;html=1;fillColor=#fff2cc;strokeColor=#d6b656;fontStyle=1;fontSize=14;" vertex="1" parent="1">
          <mxGeometry x="120" y="190" width="120" height="70" as="geometry" />
        </mxCell>
        <mxCell id="nvpcLpLh85yd8eupczsD-8" style="edgeStyle=orthogonalEdgeStyle;rounded=0;orthogonalLoop=1;jettySize=auto;html=1;fontSize=14;" edge="1" parent="1" source="nvpcLpLh85yd8eupczsD-3" target="nvpcLpLh85yd8eupczsD-7">
          <mxGeometry relative="1" as="geometry" />
        </mxCell>
        <mxCell id="nvpcLpLh85yd8eupczsD-3" value="CONFIG_DB" style="shape=cylinder3;whiteSpace=wrap;html=1;boundedLbl=1;backgroundOutline=1;size=15;fillColor=#f5f5f5;strokeColor=#666666;fontStyle=1;fontSize=14;fontColor=#333333;" vertex="1" parent="1">
          <mxGeometry x="130" y="310" width="100" height="80" as="geometry" />
        </mxCell>
        <mxCell id="nvpcLpLh85yd8eupczsD-6" value="" style="edgeStyle=orthogonalEdgeStyle;rounded=0;orthogonalLoop=1;jettySize=auto;html=1;startArrow=classic;startFill=1;fontSize=14;fillColor=#f5f5f5;strokeColor=#666666;" edge="1" parent="1" source="nvpcLpLh85yd8eupczsD-5" target="nvpcLpLh85yd8eupczsD-3">
          <mxGeometry relative="1" as="geometry" />
        </mxCell>
        <mxCell id="nvpcLpLh85yd8eupczsD-5" value="config_db.json" style="shape=document;whiteSpace=wrap;html=1;boundedLbl=1;fillColor=#f5f5f5;strokeColor=#666666;fontStyle=1;fontSize=14;fontColor=#333333;" vertex="1" parent="1">
          <mxGeometry x="120" y="440" width="120" height="60" as="geometry" />
        </mxCell>
        <mxCell id="nvpcLpLh85yd8eupczsD-10" style="edgeStyle=orthogonalEdgeStyle;rounded=0;orthogonalLoop=1;jettySize=auto;html=1;entryX=0;entryY=0.5;entryDx=0;entryDy=0;fontSize=14;" edge="1" parent="1" source="nvpcLpLh85yd8eupczsD-7" target="nvpcLpLh85yd8eupczsD-9">
          <mxGeometry relative="1" as="geometry" />
        </mxCell>
        <mxCell id="nvpcLpLh85yd8eupczsD-7" value="sonic-cfggen" style="rounded=1;whiteSpace=wrap;html=1;fontStyle=1;fontSize=14;fillColor=#dae8fc;strokeColor=#6c8ebf;" vertex="1" parent="1">
          <mxGeometry x="400" y="320" width="120" height="60" as="geometry" />
        </mxCell>
        <mxCell id="nvpcLpLh85yd8eupczsD-12" style="edgeStyle=orthogonalEdgeStyle;rounded=0;orthogonalLoop=1;jettySize=auto;html=1;entryX=0.5;entryY=1;entryDx=0;entryDy=0;entryPerimeter=0;fontSize=14;" edge="1" parent="1" source="nvpcLpLh85yd8eupczsD-9" target="nvpcLpLh85yd8eupczsD-11">
          <mxGeometry relative="1" as="geometry" />
        </mxCell>
        <mxCell id="nvpcLpLh85yd8eupczsD-9" value="zebra.conf" style="shape=document;whiteSpace=wrap;html=1;boundedLbl=1;fillColor=#f5f5f5;strokeColor=#666666;fontStyle=1;fontSize=14;fontColor=#333333;" vertex="1" parent="1">
          <mxGeometry x="710" y="320" width="120" height="60" as="geometry" />
        </mxCell>
        <mxCell id="nvpcLpLh85yd8eupczsD-11" value="FRR&lt;br style=&quot;font-size: 14px;&quot;&gt;(zebra)" style="shape=cylinder3;whiteSpace=wrap;html=1;boundedLbl=1;backgroundOutline=1;size=15;fillColor=#dae8fc;strokeColor=#6c8ebf;fontStyle=1;fontSize=14;" vertex="1" parent="1">
          <mxGeometry x="720" y="210" width="100" height="80" as="geometry" />
        </mxCell>
        <mxCell id="nvpcLpLh85yd8eupczsD-15" style="edgeStyle=orthogonalEdgeStyle;rounded=0;orthogonalLoop=1;jettySize=auto;html=1;entryX=0.5;entryY=1;entryDx=0;entryDy=0;" edge="1" parent="1" source="nvpcLpLh85yd8eupczsD-14" target="nvpcLpLh85yd8eupczsD-7">
          <mxGeometry relative="1" as="geometry" />
        </mxCell>
        <mxCell id="nvpcLpLh85yd8eupczsD-14" value="zebra.conf.j2" style="shape=document;whiteSpace=wrap;html=1;boundedLbl=1;fillColor=#f5f5f5;strokeColor=#666666;fontStyle=1;fontSize=14;fontColor=#333333;" vertex="1" parent="1">
          <mxGeometry x="400" y="440" width="120" height="60" as="geometry" />
        </mxCell>
      </root>
    </mxGraphModel>
  </diagram>
</mxfile>
